<svg xmlns="http://www.w3.org/2000/svg" xmlns:xlink="http://www.w3.org/1999/xlink" width="500" zoomAndPan="magnify" viewBox="0 0 375 374.999991" height="500" preserveAspectRatio="xMidYMid meet" version="1.0"><defs><g/><clipPath id="35ff675104"><path d="M 138.960938 117.808594 L 235.710938 117.808594 L 235.710938 214.558594 L 138.960938 214.558594 Z M 138.960938 117.808594 " clip-rule="nonzero"/></clipPath><clipPath id="a7b80bc32f"><path d="M 153.109375 133.460938 L 222.109375 133.460938 L 222.109375 199.460938 L 153.109375 199.460938 Z M 153.109375 133.460938 " clip-rule="nonzero"/></clipPath></defs><g clip-path="url(#35ff675104)"><path fill="#fb7ea2" d="M 187.335938 122.644531 C 211.34375 122.644531 230.875 142.175781 230.875 166.183594 C 230.875 190.191406 211.34375 209.722656 187.335938 209.722656 C 163.328125 209.722656 143.796875 190.191406 143.796875 166.183594 C 143.796875 142.175781 163.328125 122.644531 187.335938 122.644531 M 187.335938 117.808594 C 160.617188 117.808594 138.960938 139.464844 138.960938 166.183594 C 138.960938 192.902344 160.617188 214.558594 187.335938 214.558594 C 214.054688 214.558594 235.710938 192.902344 235.710938 166.183594 C 235.710938 139.464844 214.054688 117.808594 187.335938 117.808594 Z M 187.335938 117.808594 " fill-opacity="1" fill-rule="nonzero"/></g><g clip-path="url(#a7b80bc32f)"><path fill="#fb7ea2" d="M 196.515625 166.648438 C 195.820312 166.875 195.078125 166.570312 194.726562 165.957031 L 190.875 167.210938 C 190.925781 167.441406 190.953125 167.679688 190.953125 167.925781 C 190.953125 168.925781 190.511719 169.820312 189.816406 170.429688 L 192.199219 173.710938 C 192.84375 173.421875 193.621094 173.609375 194.050781 174.203125 C 194.542969 174.882812 194.394531 175.832031 193.714844 176.324219 C 193.035156 176.820312 192.085938 176.667969 191.59375 175.988281 C 191.164062 175.398438 191.222656 174.597656 191.699219 174.078125 L 189.3125 170.792969 C 188.820312 171.085938 188.242188 171.253906 187.628906 171.253906 C 187.007812 171.253906 186.425781 171.082031 185.929688 170.785156 L 183.546875 174.066406 C 184.019531 174.589844 184.078125 175.386719 183.648438 175.980469 C 183.15625 176.660156 182.207031 176.808594 181.527344 176.316406 C 180.847656 175.824219 180.699219 174.875 181.191406 174.195312 C 181.621094 173.601562 182.402344 173.410156 183.042969 173.703125 L 185.425781 170.417969 C 184.738281 169.808594 184.304688 168.917969 184.304688 167.925781 C 184.304688 167.675781 184.332031 167.429688 184.386719 167.195312 L 180.53125 165.945312 C 180.183594 166.554688 179.441406 166.859375 178.746094 166.632812 C 177.949219 166.375 177.511719 165.515625 177.769531 164.71875 C 178.03125 163.921875 178.886719 163.484375 179.683594 163.742188 C 180.378906 163.96875 180.800781 164.652344 180.726562 165.351562 L 184.578125 166.605469 C 185.050781 165.515625 186.09375 164.726562 187.324219 164.617188 L 187.324219 160.566406 C 186.636719 160.421875 186.117188 159.8125 186.117188 159.078125 C 186.117188 158.242188 186.796875 157.558594 187.636719 157.558594 C 188.476562 157.558594 189.15625 158.242188 189.15625 159.078125 C 189.15625 159.8125 188.636719 160.421875 187.945312 160.566406 L 187.945312 164.617188 C 189.179688 164.734375 190.214844 165.527344 190.683594 166.617188 L 194.535156 165.367188 C 194.460938 164.667969 194.878906 163.984375 195.578125 163.757812 C 196.375 163.5 197.230469 163.9375 197.492188 164.734375 C 197.75 165.53125 197.3125 166.390625 196.515625 166.648438 Z M 221.902344 162.085938 C 221.792969 161.683594 221.628906 161.296875 221.414062 160.9375 C 221.328125 160.796875 221.234375 160.65625 221.132812 160.523438 C 220.929688 160.257812 220.695312 160.015625 220.4375 159.796875 C 220.308594 159.6875 220.171875 159.585938 220.027344 159.492188 C 219.527344 159.164062 218.953125 158.929688 218.316406 158.820312 L 217.695312 158.714844 C 217.585938 158.695312 217.492188 158.648438 217.417969 158.582031 C 217.382812 158.550781 217.351562 158.511719 217.324219 158.46875 C 217.296875 158.429688 217.277344 158.386719 217.261719 158.339844 C 217.246094 158.292969 217.238281 158.246094 217.234375 158.195312 C 217.230469 158.101562 217.25 158 217.296875 157.910156 C 217.324219 157.863281 217.351562 157.820312 217.394531 157.78125 L 217.867188 157.292969 C 218.1875 156.960938 218.449219 156.597656 218.648438 156.214844 C 218.84375 155.832031 218.984375 155.425781 219.0625 155.015625 C 219.078125 154.933594 219.09375 154.851562 219.105469 154.765625 C 219.125 154.601562 219.140625 154.433594 219.144531 154.269531 C 219.148438 154.019531 219.136719 153.769531 219.101562 153.523438 C 219.066406 153.273438 219.011719 153.03125 218.9375 152.792969 C 218.859375 152.554688 218.765625 152.320312 218.652344 152.097656 C 218.574219 151.945312 218.492188 151.800781 218.398438 151.660156 C 218.210938 151.378906 217.988281 151.113281 217.734375 150.875 C 217.480469 150.632812 217.195312 150.421875 216.875 150.238281 C 216.769531 150.175781 216.664062 150.117188 216.554688 150.0625 C 216.523438 150.042969 216.484375 150.027344 216.449219 150.007812 C 216.378906 149.96875 216.304688 149.933594 216.230469 149.894531 C 216.1875 149.875 216.144531 149.855469 216.101562 149.835938 C 216.03125 149.804688 215.964844 149.769531 215.894531 149.738281 C 215.847656 149.71875 215.800781 149.699219 215.753906 149.679688 C 215.6875 149.648438 215.621094 149.621094 215.554688 149.59375 C 215.503906 149.574219 215.453125 149.554688 215.40625 149.535156 C 215.335938 149.507812 215.269531 149.480469 215.199219 149.457031 C 215.152344 149.4375 215.101562 149.417969 215.050781 149.402344 C 214.980469 149.375 214.910156 149.351562 214.839844 149.328125 C 214.789062 149.3125 214.738281 149.296875 214.6875 149.277344 C 214.613281 149.253906 214.535156 149.230469 214.460938 149.210938 C 214.414062 149.195312 214.367188 149.179688 214.320312 149.167969 C 214.226562 149.140625 214.128906 149.113281 214.035156 149.089844 C 214.003906 149.082031 213.976562 149.074219 213.945312 149.066406 C 213.820312 149.035156 213.695312 149.003906 213.566406 148.976562 C 213.523438 148.96875 213.484375 148.960938 213.441406 148.953125 C 213.351562 148.933594 213.265625 148.914062 213.175781 148.898438 C 213.125 148.890625 213.070312 148.878906 213.019531 148.871094 C 212.9375 148.855469 212.859375 148.84375 212.777344 148.832031 C 212.722656 148.820312 212.664062 148.8125 212.609375 148.804688 C 212.527344 148.792969 212.449219 148.785156 212.371094 148.773438 C 212.3125 148.765625 212.253906 148.757812 212.195312 148.753906 C 212.113281 148.742188 212.035156 148.734375 211.953125 148.726562 C 211.894531 148.722656 211.835938 148.714844 211.777344 148.710938 C 211.695312 148.703125 211.613281 148.699219 211.527344 148.691406 C 211.46875 148.6875 211.410156 148.683594 211.351562 148.683594 C 211.265625 148.675781 211.175781 148.675781 211.085938 148.671875 C 211.03125 148.667969 210.976562 148.664062 210.921875 148.664062 C 210.816406 148.660156 210.710938 148.660156 210.605469 148.660156 C 210.566406 148.660156 210.523438 148.660156 210.484375 148.660156 C 210.449219 148.660156 210.410156 148.660156 210.375 148.660156 C 210.28125 148.660156 210.1875 148.660156 210.089844 148.664062 C 210.039062 148.664062 209.988281 148.667969 209.9375 148.667969 C 209.855469 148.671875 209.773438 148.675781 209.691406 148.679688 C 209.636719 148.683594 209.578125 148.683594 209.523438 148.6875 C 209.445312 148.691406 209.363281 148.699219 209.285156 148.703125 C 209.226562 148.707031 209.167969 148.710938 209.109375 148.71875 C 209.03125 148.722656 208.949219 148.730469 208.867188 148.738281 C 208.8125 148.742188 208.753906 148.75 208.695312 148.753906 C 208.609375 148.765625 208.527344 148.773438 208.441406 148.785156 C 208.386719 148.789062 208.332031 148.796875 208.277344 148.804688 C 208.179688 148.816406 208.085938 148.828125 207.988281 148.84375 C 207.941406 148.847656 207.898438 148.855469 207.851562 148.863281 C 207.710938 148.882812 207.570312 148.90625 207.425781 148.929688 C 207.394531 148.933594 207.363281 148.941406 207.328125 148.949219 C 207.21875 148.96875 207.105469 148.988281 206.992188 149.007812 C 206.9375 149.019531 206.882812 149.03125 206.828125 149.042969 C 206.738281 149.058594 206.644531 149.078125 206.550781 149.097656 C 206.492188 149.109375 206.433594 149.125 206.371094 149.136719 C 206.28125 149.15625 206.191406 149.179688 206.105469 149.199219 C 206.042969 149.214844 205.980469 149.230469 205.917969 149.242188 C 205.828125 149.265625 205.738281 149.289062 205.648438 149.3125 C 205.585938 149.328125 205.523438 149.34375 205.460938 149.359375 C 205.367188 149.382812 205.273438 149.410156 205.183594 149.433594 C 205.121094 149.453125 205.0625 149.46875 205.003906 149.484375 C 204.898438 149.515625 204.792969 149.546875 204.691406 149.578125 C 204.640625 149.589844 204.589844 149.605469 204.539062 149.621094 C 204.382812 149.667969 204.226562 149.71875 204.070312 149.769531 C 203.933594 149.8125 203.800781 149.859375 203.664062 149.910156 C 202.585938 150.300781 201.539062 150.84375 200.535156 151.503906 C 200.519531 151.511719 200.503906 151.523438 200.488281 151.53125 C 200.238281 152.363281 199.929688 153.210938 199.558594 154.074219 C 199.554688 154.085938 199.550781 154.097656 199.542969 154.109375 C 197.582031 158.660156 194.304688 162.859375 191.824219 165.652344 C 191.589844 165.214844 191.285156 164.820312 190.925781 164.476562 C 191.652344 163.648438 192.449219 162.699219 193.253906 161.65625 C 193.429688 161.433594 193.601562 161.207031 193.773438 160.976562 C 194.378906 160.164062 194.984375 159.304688 195.566406 158.40625 C 196.558594 156.871094 197.484375 155.226562 198.210938 153.535156 C 198.273438 153.394531 198.332031 153.257812 198.386719 153.117188 C 198.726562 152.292969 199.015625 151.460938 199.242188 150.628906 C 199.328125 150.3125 199.410156 149.996094 199.476562 149.679688 C 199.539062 149.390625 199.59375 149.105469 199.636719 148.816406 C 199.753906 148.097656 199.8125 147.382812 199.8125 146.675781 C 199.8125 141.125 198.128906 137.140625 195.476562 134.695312 C 195.414062 134.640625 195.351562 134.585938 195.289062 134.53125 C 195.269531 134.515625 195.246094 134.5 195.226562 134.484375 C 195.183594 134.445312 195.136719 134.410156 195.089844 134.378906 C 195.066406 134.359375 195.042969 134.34375 195.019531 134.328125 C 194.972656 134.292969 194.925781 134.261719 194.878906 134.230469 C 194.855469 134.21875 194.835938 134.203125 194.816406 134.191406 C 194.75 134.148438 194.683594 134.109375 194.617188 134.074219 C 194.613281 134.070312 194.609375 134.070312 194.609375 134.066406 C 194.535156 134.027344 194.464844 133.992188 194.394531 133.957031 C 194.375 133.945312 194.351562 133.9375 194.332031 133.925781 C 194.28125 133.902344 194.226562 133.878906 194.175781 133.855469 C 194.148438 133.847656 194.125 133.835938 194.101562 133.828125 C 194.050781 133.808594 193.996094 133.785156 193.945312 133.769531 C 193.921875 133.761719 193.902344 133.75 193.878906 133.746094 C 193.8125 133.722656 193.742188 133.699219 193.675781 133.679688 C 193.667969 133.679688 193.660156 133.675781 193.652344 133.675781 C 193.578125 133.652344 193.503906 133.636719 193.425781 133.617188 C 193.40625 133.613281 193.386719 133.609375 193.363281 133.605469 C 193.308594 133.59375 193.253906 133.582031 193.195312 133.574219 C 193.171875 133.570312 193.144531 133.566406 193.121094 133.5625 C 193.066406 133.554688 193.011719 133.546875 192.960938 133.539062 C 192.9375 133.535156 192.910156 133.535156 192.886719 133.53125 C 192.824219 133.527344 192.757812 133.519531 192.695312 133.515625 C 192.683594 133.515625 192.667969 133.515625 192.65625 133.515625 C 192.582031 133.511719 192.507812 133.507812 192.429688 133.511719 C 192.339844 133.511719 192.246094 133.511719 192.152344 133.519531 C 192.136719 133.519531 192.121094 133.523438 192.105469 133.523438 C 192.03125 133.527344 191.953125 133.535156 191.875 133.546875 C 191.847656 133.550781 191.816406 133.554688 191.785156 133.558594 C 191.722656 133.570312 191.660156 133.578125 191.601562 133.589844 C 191.566406 133.597656 191.535156 133.601562 191.5 133.609375 C 191.441406 133.621094 191.382812 133.636719 191.320312 133.652344 C 191.289062 133.660156 191.257812 133.667969 191.226562 133.675781 C 191.164062 133.695312 191.097656 133.714844 191.035156 133.738281 C 191.011719 133.742188 190.984375 133.75 190.960938 133.757812 C 190.871094 133.789062 190.785156 133.824219 190.699219 133.859375 C 190.691406 133.863281 190.683594 133.867188 190.675781 133.871094 C 190.597656 133.902344 190.519531 133.9375 190.445312 133.976562 C 190.417969 133.988281 190.394531 134 190.367188 134.015625 C 190.308594 134.042969 190.253906 134.074219 190.195312 134.105469 C 190.167969 134.125 190.136719 134.140625 190.109375 134.160156 C 190.054688 134.191406 190.003906 134.222656 189.953125 134.257812 C 189.921875 134.277344 189.894531 134.292969 189.871094 134.3125 C 189.8125 134.351562 189.757812 134.390625 189.707031 134.433594 C 189.683594 134.449219 189.660156 134.464844 189.640625 134.484375 C 189.566406 134.542969 189.492188 134.601562 189.421875 134.667969 C 189.417969 134.671875 189.414062 134.675781 189.410156 134.675781 C 189.34375 134.738281 189.277344 134.800781 189.214844 134.867188 C 189.191406 134.890625 189.171875 134.910156 189.152344 134.933594 C 189.105469 134.984375 189.0625 135.03125 189.019531 135.082031 C 188.996094 135.109375 188.972656 135.136719 188.949219 135.164062 C 188.910156 135.214844 188.871094 135.265625 188.832031 135.316406 C 188.808594 135.347656 188.789062 135.375 188.765625 135.40625 C 188.726562 135.460938 188.691406 135.515625 188.652344 135.574219 C 188.636719 135.601562 188.617188 135.628906 188.601562 135.65625 C 188.546875 135.742188 188.496094 135.828125 188.449219 135.921875 L 188.15625 136.476562 C 188.140625 136.511719 188.117188 136.542969 188.09375 136.570312 C 188.070312 136.597656 188.046875 136.625 188.019531 136.648438 C 187.996094 136.664062 187.972656 136.683594 187.949219 136.699219 C 187.945312 136.699219 187.945312 136.699219 187.945312 136.699219 C 187.902344 136.722656 187.859375 136.742188 187.8125 136.753906 C 187.8125 136.753906 187.808594 136.753906 187.808594 136.753906 C 187.792969 136.757812 187.777344 136.761719 187.761719 136.765625 C 187.753906 136.765625 187.746094 136.765625 187.738281 136.769531 C 187.726562 136.769531 187.714844 136.769531 187.699219 136.769531 C 187.691406 136.769531 187.675781 136.773438 187.667969 136.773438 C 187.65625 136.773438 187.644531 136.769531 187.632812 136.769531 C 187.617188 136.769531 187.605469 136.769531 187.59375 136.769531 C 187.570312 136.765625 187.550781 136.761719 187.527344 136.753906 C 187.527344 136.753906 187.523438 136.753906 187.523438 136.753906 C 187.511719 136.75 187.5 136.746094 187.488281 136.742188 C 187.453125 136.730469 187.417969 136.71875 187.386719 136.699219 C 187.300781 136.648438 187.226562 136.574219 187.175781 136.476562 L 186.855469 135.871094 C 186.808594 135.78125 186.757812 135.695312 186.707031 135.609375 C 186.6875 135.582031 186.671875 135.554688 186.652344 135.527344 C 186.617188 135.46875 186.578125 135.414062 186.539062 135.359375 C 186.519531 135.328125 186.496094 135.300781 186.476562 135.269531 C 186.4375 135.21875 186.398438 135.167969 186.359375 135.121094 C 186.335938 135.09375 186.3125 135.0625 186.289062 135.035156 C 186.246094 134.988281 186.203125 134.9375 186.160156 134.890625 C 186.136719 134.867188 186.117188 134.84375 186.09375 134.820312 C 186.03125 134.757812 185.96875 134.695312 185.902344 134.632812 C 185.898438 134.628906 185.894531 134.625 185.886719 134.621094 C 185.816406 134.558594 185.746094 134.496094 185.671875 134.441406 C 185.648438 134.421875 185.621094 134.402344 185.597656 134.382812 C 185.546875 134.34375 185.496094 134.308594 185.445312 134.269531 C 185.414062 134.25 185.382812 134.230469 185.355469 134.210938 C 185.304688 134.179688 185.253906 134.148438 185.203125 134.117188 C 185.175781 134.097656 185.144531 134.078125 185.113281 134.0625 C 185.058594 134.03125 185.003906 134.003906 184.949219 133.972656 C 184.921875 133.960938 184.894531 133.945312 184.863281 133.929688 C 184.789062 133.894531 184.714844 133.859375 184.636719 133.828125 C 184.628906 133.824219 184.621094 133.820312 184.613281 133.816406 C 184.527344 133.78125 184.441406 133.746094 184.355469 133.71875 C 184.324219 133.707031 184.296875 133.699219 184.269531 133.691406 C 184.207031 133.671875 184.148438 133.652344 184.089844 133.636719 C 184.054688 133.625 184.019531 133.617188 183.988281 133.609375 C 183.929688 133.59375 183.875 133.582031 183.816406 133.570312 C 183.78125 133.5625 183.746094 133.554688 183.710938 133.546875 C 183.652344 133.535156 183.589844 133.527344 183.53125 133.515625 C 183.5 133.511719 183.46875 133.507812 183.4375 133.503906 C 183.355469 133.492188 183.273438 133.484375 183.191406 133.480469 C 183.179688 133.476562 183.171875 133.476562 183.164062 133.476562 C 183.070312 133.46875 182.976562 133.46875 182.886719 133.46875 C 182.8125 133.46875 182.738281 133.46875 182.664062 133.472656 C 182.65625 133.472656 182.648438 133.472656 182.640625 133.472656 C 182.574219 133.476562 182.503906 133.480469 182.433594 133.488281 C 182.410156 133.492188 182.382812 133.492188 182.359375 133.496094 C 182.308594 133.503906 182.253906 133.507812 182.203125 133.515625 C 182.175781 133.519531 182.148438 133.523438 182.121094 133.53125 C 182.070312 133.539062 182.015625 133.546875 181.964844 133.558594 C 181.941406 133.5625 181.917969 133.566406 181.894531 133.574219 C 181.816406 133.589844 181.742188 133.609375 181.667969 133.628906 C 181.664062 133.628906 181.65625 133.632812 181.648438 133.632812 C 181.582031 133.652344 181.515625 133.675781 181.445312 133.695312 C 181.421875 133.703125 181.398438 133.714844 181.375 133.722656 C 181.324219 133.738281 181.273438 133.757812 181.222656 133.777344 C 181.199219 133.789062 181.171875 133.800781 181.144531 133.808594 C 181.09375 133.832031 181.046875 133.851562 180.996094 133.875 C 180.972656 133.886719 180.949219 133.894531 180.925781 133.90625 C 180.855469 133.941406 180.785156 133.976562 180.714844 134.015625 C 180.710938 134.015625 180.707031 134.019531 180.703125 134.023438 C 180.636719 134.058594 180.574219 134.097656 180.507812 134.136719 C 180.488281 134.148438 180.464844 134.164062 180.441406 134.179688 C 180.394531 134.207031 180.347656 134.238281 180.304688 134.273438 C 180.28125 134.289062 180.257812 134.304688 180.234375 134.324219 C 180.1875 134.355469 180.140625 134.390625 180.097656 134.425781 C 180.074219 134.441406 180.054688 134.457031 180.035156 134.476562 C 179.96875 134.527344 179.90625 134.582031 179.84375 134.636719 C 177.152344 137.078125 175.441406 141.082031 175.441406 146.675781 C 175.441406 147.53125 175.53125 148.402344 175.695312 149.269531 C 175.722656 149.414062 175.753906 149.558594 175.785156 149.703125 C 175.941406 150.429688 176.148438 151.15625 176.398438 151.875 C 176.597656 152.449219 176.824219 153.023438 177.070312 153.59375 C 178.917969 157.847656 181.976562 161.804688 184.328125 164.476562 C 183.972656 164.820312 183.667969 165.214844 183.429688 165.652344 C 180.957031 162.867188 177.703125 158.691406 175.738281 154.171875 C 175.734375 154.160156 175.730469 154.148438 175.722656 154.136719 C 175.339844 153.25 175.023438 152.382812 174.765625 151.53125 C 174.664062 151.464844 174.5625 151.402344 174.460938 151.335938 C 174.285156 151.226562 174.113281 151.121094 173.9375 151.015625 C 173.554688 150.796875 173.167969 150.589844 172.777344 150.40625 C 172.253906 150.15625 171.722656 149.945312 171.183594 149.769531 C 171.027344 149.71875 170.871094 149.667969 170.71875 149.621094 C 170.667969 149.605469 170.617188 149.59375 170.570312 149.578125 C 170.464844 149.546875 170.359375 149.515625 170.257812 149.484375 C 170.199219 149.46875 170.140625 149.453125 170.082031 149.4375 C 169.988281 149.410156 169.890625 149.382812 169.796875 149.359375 C 169.738281 149.34375 169.675781 149.328125 169.617188 149.3125 C 169.527344 149.289062 169.433594 149.265625 169.34375 149.246094 C 169.285156 149.230469 169.222656 149.214844 169.164062 149.203125 C 169.074219 149.179688 168.980469 149.160156 168.890625 149.140625 C 168.832031 149.125 168.777344 149.113281 168.71875 149.101562 C 168.625 149.082031 168.527344 149.0625 168.433594 149.042969 C 168.382812 149.03125 168.332031 149.023438 168.28125 149.011719 C 168.171875 148.992188 168.066406 148.972656 167.957031 148.953125 C 167.921875 148.945312 167.882812 148.9375 167.847656 148.933594 C 167.699219 148.90625 167.554688 148.882812 167.414062 148.863281 C 167.414062 148.863281 167.410156 148.863281 167.410156 148.863281 C 167.269531 148.839844 167.128906 148.820312 166.992188 148.804688 C 166.949219 148.796875 166.90625 148.792969 166.867188 148.789062 C 166.769531 148.777344 166.671875 148.765625 166.574219 148.753906 C 166.523438 148.75 166.472656 148.746094 166.425781 148.742188 C 166.335938 148.734375 166.246094 148.722656 166.160156 148.71875 C 166.109375 148.710938 166.054688 148.707031 166.003906 148.707031 C 165.917969 148.699219 165.835938 148.691406 165.75 148.6875 C 165.699219 148.683594 165.644531 148.683594 165.59375 148.679688 C 165.511719 148.675781 165.429688 148.671875 165.347656 148.667969 C 165.292969 148.667969 165.242188 148.664062 165.191406 148.664062 C 165.105469 148.660156 165.023438 148.660156 164.941406 148.660156 C 164.894531 148.660156 164.84375 148.65625 164.796875 148.65625 C 164.738281 148.65625 164.683594 148.660156 164.625 148.660156 C 164.535156 148.660156 164.445312 148.660156 164.355469 148.664062 C 164.300781 148.664062 164.242188 148.667969 164.183594 148.667969 C 164.097656 148.671875 164.015625 148.675781 163.929688 148.679688 C 163.871094 148.683594 163.8125 148.6875 163.757812 148.691406 C 163.671875 148.695312 163.589844 148.703125 163.507812 148.707031 C 163.449219 148.710938 163.394531 148.71875 163.339844 148.722656 C 163.253906 148.730469 163.171875 148.738281 163.089844 148.75 C 163.035156 148.753906 162.980469 148.761719 162.929688 148.765625 C 162.84375 148.777344 162.757812 148.789062 162.671875 148.800781 C 162.625 148.808594 162.574219 148.8125 162.527344 148.820312 C 162.433594 148.835938 162.339844 148.851562 162.246094 148.867188 C 162.207031 148.875 162.171875 148.878906 162.132812 148.886719 C 161.871094 148.933594 161.613281 148.992188 161.359375 149.050781 C 161.328125 149.0625 161.296875 149.070312 161.265625 149.078125 C 161.171875 149.101562 161.078125 149.125 160.988281 149.152344 C 160.945312 149.164062 160.902344 149.175781 160.859375 149.1875 C 160.78125 149.210938 160.699219 149.234375 160.621094 149.261719 C 160.578125 149.273438 160.53125 149.289062 160.484375 149.304688 C 160.410156 149.328125 160.335938 149.355469 160.265625 149.378906 C 160.21875 149.394531 160.171875 149.414062 160.121094 149.429688 C 160.050781 149.457031 159.980469 149.480469 159.914062 149.507812 C 159.867188 149.527344 159.820312 149.546875 159.773438 149.5625 C 159.703125 149.589844 159.636719 149.621094 159.566406 149.648438 C 159.519531 149.667969 159.476562 149.6875 159.429688 149.707031 C 159.363281 149.738281 159.292969 149.769531 159.222656 149.800781 C 159.183594 149.820312 159.140625 149.839844 159.097656 149.859375 C 159.023438 149.894531 158.949219 149.933594 158.875 149.96875 C 158.84375 149.988281 158.808594 150.003906 158.773438 150.019531 C 158.667969 150.078125 158.558594 150.132812 158.457031 150.191406 C 158.214844 150.328125 157.992188 150.480469 157.789062 150.648438 C 157.582031 150.820312 157.398438 151.003906 157.230469 151.199219 C 157.121094 151.332031 157.015625 151.46875 156.921875 151.609375 C 156.828125 151.75 156.742188 151.894531 156.667969 152.046875 C 156.628906 152.121094 156.59375 152.195312 156.558594 152.273438 C 156.488281 152.425781 156.429688 152.582031 156.378906 152.742188 C 156.328125 152.902344 156.289062 153.0625 156.253906 153.226562 C 156.222656 153.390625 156.199219 153.554688 156.183594 153.722656 C 156.179688 153.804688 156.171875 153.886719 156.171875 153.972656 C 156.160156 154.304688 156.1875 154.640625 156.25 154.972656 C 156.28125 155.136719 156.324219 155.300781 156.375 155.464844 C 156.449219 155.707031 156.546875 155.945312 156.667969 156.175781 C 156.867188 156.5625 157.125 156.925781 157.449219 157.257812 L 157.886719 157.707031 C 157.964844 157.785156 158.011719 157.878906 158.03125 157.976562 C 158.042969 158.023438 158.046875 158.074219 158.042969 158.121094 C 158.039062 158.21875 158.007812 158.316406 157.953125 158.398438 C 157.875 158.519531 157.746094 158.613281 157.582031 158.640625 L 156.910156 158.757812 C 156.277344 158.867188 155.699219 159.101562 155.203125 159.425781 C 155.132812 159.472656 155.0625 159.523438 154.996094 159.570312 C 154.859375 159.671875 154.730469 159.78125 154.605469 159.894531 C 154.484375 160.011719 154.367188 160.132812 154.257812 160.257812 C 154.042969 160.511719 153.855469 160.789062 153.699219 161.082031 C 153.621094 161.230469 153.550781 161.378906 153.488281 161.535156 C 153.429688 161.6875 153.375 161.847656 153.332031 162.007812 C 153.242188 162.328125 153.1875 162.664062 153.171875 163 C 153.167969 163.085938 153.167969 163.171875 153.167969 163.257812 C 153.175781 163.851562 153.304688 164.460938 153.570312 165.046875 C 154.21875 166.496094 155.214844 167.859375 156.570312 169.082031 C 157.054688 169.515625 157.585938 169.933594 158.164062 170.332031 C 158.394531 170.492188 158.636719 170.644531 158.882812 170.796875 C 160.238281 171.632812 161.824219 172.359375 163.652344 172.957031 C 163.824219 173.011719 163.992188 173.0625 164.167969 173.109375 C 164.214844 173.121094 164.265625 173.136719 164.3125 173.148438 C 164.449219 173.183594 164.589844 173.21875 164.726562 173.25 C 164.769531 173.261719 164.808594 173.269531 164.847656 173.28125 C 165.023438 173.320312 165.199219 173.355469 165.378906 173.386719 C 165.417969 173.394531 165.457031 173.402344 165.496094 173.40625 C 165.640625 173.433594 165.785156 173.457031 165.929688 173.476562 C 165.980469 173.484375 166.03125 173.492188 166.085938 173.5 C 166.253906 173.523438 166.421875 173.542969 166.59375 173.558594 C 166.609375 173.5625 166.621094 173.5625 166.632812 173.5625 C 166.816406 173.582031 167 173.597656 167.183594 173.609375 C 167.238281 173.613281 167.289062 173.617188 167.339844 173.621094 C 167.488281 173.628906 167.632812 173.636719 167.78125 173.640625 C 167.824219 173.644531 167.871094 173.644531 167.917969 173.644531 C 168.105469 173.652344 168.289062 173.65625 168.476562 173.65625 C 168.523438 173.65625 168.574219 173.65625 168.621094 173.652344 C 168.742188 173.652344 168.863281 173.652344 168.988281 173.648438 C 169.050781 173.648438 169.113281 173.644531 169.171875 173.644531 C 169.285156 173.640625 169.398438 173.636719 169.511719 173.632812 C 169.574219 173.628906 169.636719 173.625 169.699219 173.621094 C 169.816406 173.617188 169.933594 173.609375 170.054688 173.597656 C 170.109375 173.597656 170.164062 173.59375 170.21875 173.589844 C 170.390625 173.574219 170.5625 173.5625 170.734375 173.542969 C 170.886719 173.53125 171.039062 173.515625 171.195312 173.496094 C 171.957031 173.410156 172.722656 173.289062 173.484375 173.144531 C 173.789062 173.085938 174.09375 173.023438 174.394531 172.957031 C 176.054688 172.59375 177.675781 172.121094 179.179688 171.605469 C 179.316406 171.558594 179.449219 171.511719 179.585938 171.464844 C 180.257812 171.230469 180.90625 170.984375 181.523438 170.746094 C 181.648438 170.695312 181.769531 170.648438 181.890625 170.597656 C 182.394531 170.398438 182.875 170.195312 183.328125 170 C 183.542969 170.449219 183.828125 170.859375 184.171875 171.214844 C 180.757812 172.707031 175.78125 174.515625 170.875 174.988281 C 170.859375 174.988281 170.847656 174.992188 170.832031 174.992188 C 170.035156 175.066406 169.25 175.105469 168.503906 175.105469 C 168.355469 175.105469 168.210938 175.101562 168.0625 175.097656 C 168.039062 175.117188 168.015625 175.136719 167.992188 175.15625 C 167.644531 175.4375 167.3125 175.726562 166.992188 176.027344 C 166.675781 176.328125 166.371094 176.640625 166.085938 176.960938 C 165.796875 177.285156 165.527344 177.617188 165.277344 177.960938 C 165.074219 178.242188 164.878906 178.519531 164.695312 178.800781 C 164.042969 179.773438 163.5 180.734375 163.054688 181.675781 C 162.800781 182.210938 162.582031 182.742188 162.394531 183.269531 C 162.160156 183.925781 161.976562 184.570312 161.835938 185.203125 C 161.78125 185.457031 161.734375 185.707031 161.695312 185.957031 C 161.632812 186.332031 161.589844 186.699219 161.5625 187.066406 C 161.546875 187.308594 161.535156 187.546875 161.53125 187.785156 C 161.519531 188.621094 161.59375 189.425781 161.75 190.203125 C 161.765625 190.28125 161.785156 190.363281 161.804688 190.441406 C 161.808594 190.464844 161.816406 190.488281 161.824219 190.511719 C 161.839844 190.570312 161.855469 190.628906 161.875 190.683594 C 161.882812 190.707031 161.890625 190.730469 161.894531 190.753906 C 161.921875 190.828125 161.945312 190.898438 161.972656 190.964844 C 161.972656 190.972656 161.976562 190.976562 161.976562 190.980469 C 162.007812 191.054688 162.039062 191.128906 162.070312 191.199219 C 162.082031 191.21875 162.089844 191.242188 162.101562 191.261719 C 162.125 191.3125 162.152344 191.367188 162.179688 191.417969 C 162.191406 191.4375 162.203125 191.460938 162.214844 191.480469 C 162.246094 191.542969 162.28125 191.601562 162.316406 191.660156 C 162.320312 191.667969 162.324219 191.675781 162.328125 191.683594 C 162.371094 191.75 162.414062 191.8125 162.457031 191.875 C 162.46875 191.894531 162.480469 191.910156 162.492188 191.925781 C 162.527344 191.972656 162.5625 192.019531 162.597656 192.066406 C 162.613281 192.085938 162.625 192.101562 162.640625 192.121094 C 162.683594 192.171875 162.722656 192.222656 162.765625 192.273438 C 162.773438 192.28125 162.78125 192.289062 162.789062 192.296875 C 162.839844 192.355469 162.890625 192.410156 162.945312 192.464844 C 162.960938 192.476562 162.972656 192.492188 162.984375 192.503906 C 163.027344 192.546875 163.070312 192.585938 163.113281 192.625 C 163.128906 192.640625 163.144531 192.65625 163.164062 192.671875 C 163.210938 192.710938 163.257812 192.753906 163.308594 192.792969 C 163.320312 192.800781 163.328125 192.808594 163.335938 192.816406 C 163.398438 192.867188 163.457031 192.910156 163.519531 192.957031 C 163.535156 192.964844 163.546875 192.976562 163.5625 192.984375 C 163.609375 193.019531 163.660156 193.054688 163.710938 193.085938 C 163.730469 193.097656 163.746094 193.109375 163.765625 193.121094 C 163.820312 193.152344 163.871094 193.183594 163.925781 193.214844 C 163.9375 193.222656 163.949219 193.230469 163.964844 193.238281 C 164.027344 193.273438 164.097656 193.308594 164.164062 193.34375 C 164.179688 193.351562 164.195312 193.355469 164.207031 193.363281 C 164.261719 193.390625 164.316406 193.414062 164.371094 193.4375 C 164.394531 193.449219 164.414062 193.457031 164.433594 193.464844 C 164.488281 193.488281 164.542969 193.507812 164.601562 193.53125 C 164.617188 193.535156 164.632812 193.542969 164.648438 193.546875 C 164.71875 193.574219 164.789062 193.597656 164.863281 193.617188 C 164.878906 193.625 164.894531 193.628906 164.910156 193.632812 C 164.964844 193.648438 165.023438 193.664062 165.082031 193.679688 C 165.105469 193.683594 165.128906 193.691406 165.152344 193.695312 C 165.207031 193.707031 165.265625 193.71875 165.320312 193.730469 C 165.339844 193.734375 165.359375 193.738281 165.378906 193.742188 C 165.453125 193.753906 165.527344 193.765625 165.601562 193.777344 C 165.617188 193.777344 165.628906 193.777344 165.644531 193.78125 C 165.707031 193.789062 165.769531 193.792969 165.832031 193.796875 C 165.855469 193.800781 165.878906 193.800781 165.902344 193.804688 C 165.957031 193.804688 166.015625 193.808594 166.074219 193.808594 C 166.09375 193.808594 166.113281 193.8125 166.136719 193.8125 C 166.179688 193.8125 166.226562 193.808594 166.273438 193.808594 C 166.3125 193.808594 166.351562 193.808594 166.390625 193.804688 C 166.4375 193.804688 166.480469 193.796875 166.527344 193.796875 C 166.566406 193.792969 166.605469 193.789062 166.644531 193.785156 C 166.691406 193.78125 166.738281 193.773438 166.78125 193.765625 C 166.820312 193.761719 166.859375 193.757812 166.898438 193.75 C 166.945312 193.742188 166.992188 193.734375 167.035156 193.722656 C 167.074219 193.714844 167.113281 193.707031 167.152344 193.699219 C 167.199219 193.6875 167.246094 193.675781 167.292969 193.664062 C 167.328125 193.652344 167.367188 193.644531 167.40625 193.632812 C 167.453125 193.621094 167.5 193.605469 167.550781 193.589844 C 167.585938 193.578125 167.621094 193.566406 167.65625 193.554688 C 167.710938 193.535156 167.765625 193.511719 167.816406 193.492188 C 167.847656 193.480469 167.875 193.46875 167.90625 193.457031 C 167.988281 193.421875 168.066406 193.386719 168.148438 193.347656 C 168.148438 193.34375 168.152344 193.34375 168.152344 193.34375 L 168.714844 193.066406 C 168.738281 193.054688 168.761719 193.046875 168.785156 193.039062 C 168.792969 193.035156 168.800781 193.035156 168.808594 193.03125 C 168.824219 193.027344 168.839844 193.023438 168.855469 193.019531 C 168.863281 193.015625 168.871094 193.015625 168.882812 193.015625 C 168.898438 193.011719 168.914062 193.011719 168.929688 193.007812 C 168.9375 193.007812 168.945312 193.007812 168.953125 193.007812 C 168.957031 193.007812 168.957031 193.007812 168.960938 193.007812 C 168.976562 193.007812 168.996094 193.007812 169.011719 193.011719 C 169.011719 193.011719 169.015625 193.011719 169.019531 193.011719 C 169.042969 193.011719 169.0625 193.015625 169.085938 193.023438 C 169.09375 193.023438 169.097656 193.027344 169.105469 193.027344 C 169.121094 193.03125 169.136719 193.035156 169.152344 193.042969 C 169.15625 193.042969 169.164062 193.046875 169.171875 193.050781 C 169.1875 193.054688 169.199219 193.0625 169.214844 193.070312 C 169.21875 193.074219 169.226562 193.078125 169.234375 193.078125 C 169.25 193.089844 169.265625 193.101562 169.28125 193.109375 C 169.285156 193.113281 169.285156 193.113281 169.289062 193.117188 C 169.304688 193.128906 169.324219 193.140625 169.339844 193.15625 C 169.34375 193.164062 169.347656 193.167969 169.355469 193.171875 C 169.363281 193.183594 169.375 193.195312 169.386719 193.207031 C 169.390625 193.210938 169.394531 193.21875 169.398438 193.222656 C 169.410156 193.234375 169.417969 193.25 169.425781 193.261719 C 169.429688 193.269531 169.433594 193.273438 169.4375 193.28125 C 169.449219 193.296875 169.460938 193.316406 169.46875 193.335938 C 169.46875 193.335938 169.46875 193.339844 169.46875 193.339844 C 169.480469 193.359375 169.488281 193.382812 169.492188 193.402344 C 169.496094 193.410156 169.496094 193.417969 169.5 193.421875 C 169.503906 193.441406 169.507812 193.457031 169.507812 193.472656 C 169.511719 193.480469 169.511719 193.488281 169.511719 193.496094 C 169.515625 193.511719 169.515625 193.527344 169.515625 193.546875 C 169.515625 193.554688 169.515625 193.5625 169.515625 193.570312 C 169.515625 193.59375 169.515625 193.617188 169.511719 193.644531 L 169.414062 194.316406 C 169.414062 194.320312 169.414062 194.320312 169.414062 194.324219 C 169.398438 194.410156 169.390625 194.496094 169.382812 194.582031 C 169.378906 194.613281 169.378906 194.640625 169.378906 194.671875 C 169.375 194.730469 169.371094 194.789062 169.367188 194.84375 C 169.367188 194.878906 169.367188 194.914062 169.367188 194.949219 C 169.367188 195 169.367188 195.050781 169.367188 195.105469 C 169.371094 195.140625 169.371094 195.175781 169.375 195.214844 C 169.375 195.261719 169.378906 195.3125 169.382812 195.359375 C 169.386719 195.398438 169.390625 195.433594 169.394531 195.46875 C 169.398438 195.519531 169.40625 195.566406 169.410156 195.613281 C 169.417969 195.648438 169.421875 195.6875 169.429688 195.722656 C 169.4375 195.769531 169.445312 195.8125 169.453125 195.859375 C 169.460938 195.898438 169.472656 195.933594 169.480469 195.96875 C 169.488281 196.015625 169.5 196.058594 169.511719 196.105469 C 169.519531 196.140625 169.53125 196.175781 169.542969 196.210938 C 169.554688 196.253906 169.566406 196.296875 169.582031 196.34375 C 169.59375 196.378906 169.605469 196.414062 169.617188 196.445312 C 169.632812 196.488281 169.648438 196.53125 169.664062 196.574219 C 169.675781 196.609375 169.691406 196.644531 169.703125 196.675781 C 169.722656 196.71875 169.738281 196.761719 169.757812 196.804688 C 169.773438 196.835938 169.789062 196.867188 169.804688 196.902344 C 169.824219 196.941406 169.84375 196.984375 169.867188 197.023438 C 169.882812 197.054688 169.898438 197.085938 169.914062 197.117188 C 169.9375 197.160156 169.960938 197.199219 169.984375 197.242188 C 170.003906 197.269531 170.019531 197.300781 170.039062 197.328125 C 170.0625 197.371094 170.089844 197.410156 170.117188 197.449219 C 170.132812 197.476562 170.152344 197.503906 170.171875 197.53125 C 170.199219 197.574219 170.230469 197.613281 170.261719 197.652344 C 170.277344 197.679688 170.296875 197.703125 170.316406 197.726562 C 170.347656 197.769531 170.382812 197.8125 170.417969 197.855469 C 170.4375 197.875 170.453125 197.894531 170.46875 197.914062 C 170.515625 197.96875 170.5625 198.019531 170.609375 198.070312 C 170.617188 198.078125 170.625 198.085938 170.632812 198.09375 C 170.691406 198.152344 170.746094 198.210938 170.808594 198.265625 C 170.820312 198.277344 170.832031 198.285156 170.84375 198.296875 C 170.890625 198.339844 170.9375 198.382812 170.988281 198.425781 C 171.011719 198.441406 171.03125 198.457031 171.054688 198.476562 C 171.09375 198.511719 171.136719 198.542969 171.179688 198.574219 C 171.207031 198.59375 171.230469 198.613281 171.257812 198.628906 C 171.296875 198.660156 171.335938 198.6875 171.378906 198.714844 C 171.40625 198.734375 171.433594 198.75 171.464844 198.769531 C 171.503906 198.796875 171.542969 198.820312 171.585938 198.84375 C 171.617188 198.863281 171.644531 198.878906 171.675781 198.898438 C 171.714844 198.917969 171.757812 198.941406 171.800781 198.964844 C 171.832031 198.980469 171.863281 198.996094 171.894531 199.011719 C 171.9375 199.03125 171.976562 199.050781 172.019531 199.070312 C 172.050781 199.085938 172.085938 199.101562 172.121094 199.113281 C 172.160156 199.132812 172.203125 199.148438 172.246094 199.167969 C 172.28125 199.179688 172.316406 199.191406 172.351562 199.203125 C 172.394531 199.21875 172.4375 199.234375 172.480469 199.25 C 172.515625 199.261719 172.550781 199.273438 172.585938 199.28125 C 172.628906 199.296875 172.675781 199.308594 172.71875 199.320312 C 172.753906 199.328125 172.792969 199.339844 172.828125 199.347656 C 172.871094 199.359375 172.917969 199.367188 172.964844 199.375 C 173 199.382812 173.039062 199.390625 173.074219 199.398438 C 173.121094 199.40625 173.167969 199.414062 173.214844 199.421875 C 173.25 199.425781 173.289062 199.429688 173.328125 199.4375 C 173.375 199.441406 173.421875 199.445312 173.46875 199.449219 C 173.507812 199.453125 173.542969 199.457031 173.582031 199.460938 C 173.628906 199.460938 173.679688 199.464844 173.730469 199.464844 C 173.765625 199.464844 173.804688 199.46875 173.839844 199.46875 C 173.898438 199.46875 173.957031 199.464844 174.011719 199.464844 C 174.042969 199.464844 174.070312 199.464844 174.101562 199.460938 C 174.1875 199.457031 174.273438 199.449219 174.363281 199.441406 C 175.039062 199.367188 175.71875 199.230469 176.402344 199.023438 C 176.742188 198.921875 177.085938 198.800781 177.425781 198.664062 C 177.765625 198.527344 178.105469 198.371094 178.445312 198.199219 C 178.558594 198.144531 178.671875 198.082031 178.785156 198.023438 C 179.011719 197.898438 179.238281 197.769531 179.460938 197.628906 C 179.574219 197.5625 179.6875 197.488281 179.800781 197.417969 C 180.136719 197.195312 180.472656 196.957031 180.804688 196.703125 C 181.140625 196.445312 181.472656 196.171875 181.800781 195.875 C 182.898438 194.894531 183.96875 193.707031 184.996094 192.292969 C 185.5 191.597656 185.9375 190.84375 186.316406 190.042969 C 186.441406 189.777344 186.558594 189.503906 186.671875 189.226562 C 186.785156 188.953125 186.894531 188.671875 186.992188 188.386719 C 187.238281 187.691406 187.449219 186.972656 187.625 186.242188 C 187.667969 186.074219 187.707031 185.90625 187.742188 185.738281 L 187.746094 185.738281 C 188.375 182.886719 188.550781 179.847656 188.511719 177.105469 C 188.507812 176.960938 188.507812 176.816406 188.503906 176.671875 C 188.46875 175.21875 188.378906 173.855469 188.265625 172.660156 C 188.765625 172.59375 189.242188 172.449219 189.683594 172.238281 C 190.046875 175.945312 190.226562 181.238281 189.160156 186.050781 C 189.15625 186.0625 189.15625 186.078125 189.152344 186.089844 C 188.941406 187.03125 188.691406 187.921875 188.398438 188.757812 C 188.40625 188.789062 188.417969 188.816406 188.429688 188.84375 C 188.535156 189.121094 188.648438 189.394531 188.765625 189.664062 C 188.945312 190.066406 189.136719 190.460938 189.34375 190.839844 C 189.484375 191.09375 189.628906 191.34375 189.78125 191.585938 C 189.855469 191.707031 189.933594 191.824219 190.011719 191.941406 C 190.09375 192.0625 190.175781 192.175781 190.257812 192.292969 C 190.664062 192.851562 191.078125 193.378906 191.5 193.871094 C 191.710938 194.117188 191.921875 194.351562 192.132812 194.582031 C 192.347656 194.8125 192.5625 195.03125 192.777344 195.242188 C 193.746094 196.195312 194.738281 196.980469 195.746094 197.601562 C 195.96875 197.742188 196.191406 197.871094 196.414062 197.996094 C 196.527344 198.054688 196.640625 198.117188 196.753906 198.171875 C 198.101562 198.863281 199.460938 199.277344 200.804688 199.433594 C 200.894531 199.445312 200.984375 199.449219 201.074219 199.457031 C 201.105469 199.457031 201.132812 199.457031 201.160156 199.460938 C 201.222656 199.460938 201.28125 199.464844 201.34375 199.464844 C 201.367188 199.464844 201.394531 199.460938 201.417969 199.460938 C 201.480469 199.460938 201.539062 199.460938 201.601562 199.457031 C 201.632812 199.453125 201.667969 199.449219 201.699219 199.449219 C 201.753906 199.441406 201.804688 199.4375 201.855469 199.433594 C 201.890625 199.429688 201.925781 199.421875 201.960938 199.417969 C 202.011719 199.410156 202.058594 199.40625 202.105469 199.398438 C 202.144531 199.390625 202.179688 199.382812 202.214844 199.375 C 202.261719 199.367188 202.308594 199.355469 202.351562 199.34375 C 202.390625 199.335938 202.425781 199.328125 202.460938 199.316406 C 202.507812 199.304688 202.550781 199.292969 202.59375 199.28125 C 202.628906 199.269531 202.667969 199.257812 202.703125 199.246094 C 202.746094 199.234375 202.789062 199.21875 202.828125 199.203125 C 202.863281 199.191406 202.902344 199.179688 202.9375 199.164062 C 202.976562 199.148438 203.019531 199.132812 203.058594 199.113281 C 203.09375 199.101562 203.128906 199.085938 203.164062 199.070312 C 203.203125 199.050781 203.242188 199.03125 203.28125 199.015625 C 203.316406 198.996094 203.351562 198.980469 203.386719 198.960938 C 203.425781 198.941406 203.460938 198.921875 203.5 198.898438 C 203.53125 198.882812 203.566406 198.863281 203.601562 198.84375 C 203.636719 198.820312 203.671875 198.796875 203.710938 198.777344 C 203.742188 198.753906 203.773438 198.734375 203.804688 198.714844 C 203.84375 198.6875 203.875 198.664062 203.910156 198.640625 C 203.941406 198.617188 203.972656 198.597656 204.003906 198.574219 C 204.039062 198.546875 204.074219 198.519531 204.105469 198.492188 C 204.136719 198.46875 204.167969 198.445312 204.195312 198.421875 C 204.230469 198.394531 204.261719 198.363281 204.296875 198.335938 C 204.324219 198.308594 204.351562 198.285156 204.378906 198.261719 C 204.414062 198.230469 204.445312 198.195312 204.480469 198.160156 C 204.503906 198.136719 204.527344 198.117188 204.550781 198.089844 C 204.605469 198.035156 204.660156 197.976562 204.710938 197.917969 C 204.730469 197.894531 204.75 197.867188 204.773438 197.84375 C 204.804688 197.804688 204.835938 197.769531 204.867188 197.730469 C 204.890625 197.699219 204.910156 197.671875 204.929688 197.640625 C 204.957031 197.605469 204.984375 197.570312 205.011719 197.535156 C 205.03125 197.503906 205.050781 197.46875 205.074219 197.4375 C 205.097656 197.402344 205.121094 197.367188 205.144531 197.328125 C 205.164062 197.296875 205.183594 197.261719 205.203125 197.230469 C 205.226562 197.195312 205.246094 197.15625 205.265625 197.117188 C 205.285156 197.085938 205.304688 197.050781 205.320312 197.015625 C 205.339844 196.976562 205.359375 196.941406 205.378906 196.902344 C 205.394531 196.867188 205.410156 196.832031 205.425781 196.796875 C 205.445312 196.753906 205.460938 196.714844 205.480469 196.675781 C 205.492188 196.640625 205.507812 196.605469 205.523438 196.566406 C 205.539062 196.527344 205.550781 196.488281 205.566406 196.445312 C 205.578125 196.410156 205.59375 196.371094 205.605469 196.335938 C 205.617188 196.292969 205.628906 196.25 205.640625 196.210938 C 205.652344 196.171875 205.664062 196.132812 205.671875 196.097656 C 205.683594 196.054688 205.695312 196.011719 205.707031 195.964844 C 205.714844 195.929688 205.722656 195.890625 205.730469 195.851562 C 205.738281 195.808594 205.746094 195.765625 205.753906 195.71875 C 205.761719 195.679688 205.765625 195.644531 205.773438 195.605469 C 205.777344 195.558594 205.785156 195.511719 205.789062 195.464844 C 205.792969 195.429688 205.796875 195.390625 205.800781 195.351562 C 205.804688 195.304688 205.808594 195.257812 205.8125 195.207031 C 205.8125 195.171875 205.816406 195.132812 205.816406 195.097656 C 205.816406 195.046875 205.816406 194.992188 205.816406 194.941406 C 205.816406 194.90625 205.816406 194.875 205.816406 194.839844 C 205.816406 194.78125 205.8125 194.722656 205.808594 194.664062 C 205.804688 194.632812 205.804688 194.605469 205.800781 194.574219 C 205.792969 194.488281 205.785156 194.398438 205.769531 194.3125 L 205.679688 193.6875 C 205.675781 193.664062 205.675781 193.640625 205.675781 193.613281 C 205.675781 193.605469 205.675781 193.597656 205.675781 193.59375 C 205.675781 193.574219 205.675781 193.558594 205.679688 193.542969 C 205.679688 193.535156 205.679688 193.527344 205.683594 193.515625 C 205.683594 193.5 205.6875 193.484375 205.691406 193.46875 C 205.695312 193.460938 205.695312 193.457031 205.699219 193.449219 C 205.703125 193.425781 205.710938 193.40625 205.722656 193.382812 C 205.730469 193.363281 205.742188 193.34375 205.753906 193.324219 C 205.757812 193.320312 205.761719 193.3125 205.765625 193.308594 C 205.773438 193.292969 205.78125 193.28125 205.792969 193.269531 C 205.796875 193.265625 205.800781 193.257812 205.804688 193.25 C 205.816406 193.238281 205.828125 193.226562 205.839844 193.21875 C 205.84375 193.210938 205.847656 193.207031 205.851562 193.203125 C 205.867188 193.1875 205.886719 193.171875 205.902344 193.160156 C 205.90625 193.160156 205.90625 193.160156 205.910156 193.15625 C 205.925781 193.144531 205.941406 193.136719 205.960938 193.125 C 205.964844 193.121094 205.972656 193.117188 205.976562 193.117188 C 205.992188 193.109375 206.007812 193.101562 206.019531 193.097656 C 206.027344 193.09375 206.035156 193.089844 206.042969 193.085938 C 206.054688 193.082031 206.070312 193.078125 206.085938 193.074219 C 206.09375 193.070312 206.097656 193.070312 206.105469 193.066406 C 206.128906 193.0625 206.148438 193.058594 206.171875 193.054688 C 206.175781 193.054688 206.179688 193.054688 206.179688 193.054688 C 206.199219 193.054688 206.214844 193.054688 206.230469 193.054688 C 206.234375 193.054688 206.238281 193.054688 206.242188 193.054688 C 206.246094 193.054688 206.253906 193.054688 206.261719 193.054688 C 206.277344 193.054688 206.292969 193.058594 206.3125 193.058594 C 206.320312 193.0625 206.328125 193.0625 206.335938 193.0625 C 206.351562 193.066406 206.367188 193.070312 206.382812 193.078125 C 206.390625 193.078125 206.398438 193.082031 206.40625 193.082031 C 206.429688 193.089844 206.453125 193.101562 206.476562 193.109375 L 207.085938 193.414062 C 207.089844 193.414062 207.089844 193.414062 207.089844 193.414062 C 207.171875 193.453125 207.253906 193.492188 207.332031 193.527344 C 207.363281 193.539062 207.390625 193.546875 207.417969 193.558594 C 207.472656 193.582031 207.527344 193.601562 207.582031 193.621094 C 207.617188 193.632812 207.648438 193.644531 207.679688 193.652344 C 207.730469 193.671875 207.78125 193.6875 207.832031 193.703125 C 207.867188 193.714844 207.902344 193.722656 207.9375 193.730469 C 207.988281 193.742188 208.035156 193.757812 208.085938 193.769531 C 208.121094 193.777344 208.160156 193.78125 208.195312 193.789062 C 208.242188 193.800781 208.289062 193.808594 208.339844 193.820312 C 208.375 193.824219 208.414062 193.828125 208.453125 193.835938 C 208.5 193.839844 208.542969 193.847656 208.589844 193.851562 C 208.628906 193.859375 208.667969 193.859375 208.707031 193.863281 C 208.753906 193.867188 208.796875 193.871094 208.84375 193.875 C 208.882812 193.875 208.921875 193.875 208.960938 193.878906 C 209.007812 193.878906 209.054688 193.878906 209.097656 193.878906 C 209.121094 193.878906 209.140625 193.878906 209.160156 193.878906 C 209.21875 193.878906 209.273438 193.875 209.332031 193.871094 C 209.355469 193.871094 209.378906 193.867188 209.402344 193.867188 C 209.464844 193.863281 209.523438 193.855469 209.585938 193.847656 C 209.601562 193.847656 209.617188 193.847656 209.628906 193.84375 C 209.707031 193.835938 209.78125 193.824219 209.855469 193.808594 C 209.871094 193.808594 209.890625 193.804688 209.910156 193.800781 C 209.964844 193.789062 210.023438 193.777344 210.078125 193.765625 C 210.101562 193.757812 210.125 193.753906 210.148438 193.746094 C 210.203125 193.734375 210.261719 193.71875 210.316406 193.703125 C 210.335938 193.699219 210.351562 193.695312 210.367188 193.6875 C 210.4375 193.667969 210.507812 193.644531 210.578125 193.617188 C 210.597656 193.613281 210.613281 193.605469 210.632812 193.597656 C 210.683594 193.578125 210.738281 193.558594 210.792969 193.535156 C 210.8125 193.527344 210.835938 193.519531 210.859375 193.507812 C 210.910156 193.484375 210.960938 193.460938 211.015625 193.4375 C 211.03125 193.429688 211.046875 193.421875 211.066406 193.414062 C 211.132812 193.378906 211.199219 193.347656 211.261719 193.308594 C 211.277344 193.300781 211.292969 193.292969 211.304688 193.285156 C 211.355469 193.253906 211.40625 193.226562 211.457031 193.195312 C 211.476562 193.183594 211.5 193.167969 211.519531 193.15625 C 211.566406 193.125 211.613281 193.09375 211.660156 193.0625 C 211.675781 193.050781 211.691406 193.039062 211.707031 193.027344 C 211.769531 192.984375 211.828125 192.941406 211.886719 192.894531 C 211.898438 192.882812 211.910156 192.875 211.921875 192.863281 C 211.96875 192.824219 212.015625 192.785156 212.058594 192.746094 C 212.078125 192.730469 212.097656 192.714844 212.113281 192.699219 C 212.15625 192.660156 212.195312 192.621094 212.234375 192.582031 C 212.25 192.570312 212.265625 192.554688 212.28125 192.539062 C 212.335938 192.484375 212.386719 192.429688 212.4375 192.375 C 212.445312 192.367188 212.453125 192.355469 212.460938 192.34375 C 212.503906 192.296875 212.542969 192.25 212.585938 192.199219 C 212.597656 192.179688 212.613281 192.164062 212.628906 192.144531 C 212.664062 192.097656 212.699219 192.054688 212.730469 192.007812 C 212.742188 191.992188 212.757812 191.972656 212.769531 191.953125 C 212.8125 191.890625 212.855469 191.828125 212.894531 191.761719 C 212.902344 191.753906 212.90625 191.746094 212.910156 191.738281 C 212.949219 191.679688 212.980469 191.621094 213.015625 191.5625 C 213.027344 191.539062 213.039062 191.519531 213.046875 191.5 C 213.074219 191.449219 213.101562 191.394531 213.128906 191.34375 C 213.136719 191.324219 213.148438 191.304688 213.15625 191.28125 C 213.191406 191.210938 213.222656 191.136719 213.253906 191.066406 C 213.253906 191.058594 213.253906 191.054688 213.257812 191.050781 C 213.285156 190.980469 213.3125 190.910156 213.335938 190.839844 C 213.34375 190.816406 213.351562 190.792969 213.359375 190.769531 C 213.375 190.714844 213.394531 190.65625 213.410156 190.597656 C 213.417969 190.574219 213.421875 190.550781 213.429688 190.527344 C 213.449219 190.449219 213.46875 190.371094 213.488281 190.289062 C 213.695312 189.289062 213.769531 188.234375 213.695312 187.132812 C 213.679688 186.890625 213.652344 186.640625 213.621094 186.394531 C 213.589844 186.144531 213.550781 185.894531 213.503906 185.640625 C 213.457031 185.386719 213.402344 185.132812 213.339844 184.875 C 213.28125 184.617188 213.210938 184.359375 213.132812 184.097656 C 212.546875 182.144531 211.515625 180.082031 209.976562 177.960938 C 209.722656 177.613281 209.453125 177.277344 209.164062 176.953125 C 208.96875 176.738281 208.769531 176.523438 208.5625 176.320312 C 208.355469 176.113281 208.140625 175.910156 207.917969 175.710938 C 207.695312 175.515625 207.46875 175.320312 207.234375 175.132812 C 206.417969 174.476562 205.527344 173.871094 204.59375 173.320312 C 200.601562 170.96875 195.800781 169.566406 192.324219 168.785156 C 192.375 168.507812 192.402344 168.21875 192.402344 167.925781 C 192.402344 167.71875 192.386719 167.511719 192.363281 167.304688 C 196 168.105469 201.085938 169.570312 205.328125 172.070312 C 205.339844 172.078125 205.351562 172.085938 205.363281 172.089844 C 206.191406 172.582031 206.960938 173.097656 207.664062 173.632812 C 207.75 173.628906 207.835938 173.625 207.921875 173.621094 C 207.972656 173.617188 208.023438 173.613281 208.078125 173.609375 C 208.25 173.597656 208.425781 173.585938 208.597656 173.566406 C 208.609375 173.566406 208.621094 173.566406 208.632812 173.5625 C 208.816406 173.546875 208.996094 173.523438 209.179688 173.5 C 209.226562 173.492188 209.277344 173.484375 209.328125 173.476562 C 209.46875 173.457031 209.613281 173.433594 209.757812 173.410156 C 209.800781 173.402344 209.839844 173.394531 209.882812 173.386719 C 210.058594 173.355469 210.234375 173.320312 210.410156 173.28125 C 210.445312 173.273438 210.484375 173.261719 210.519531 173.253906 C 210.664062 173.21875 210.804688 173.183594 210.945312 173.148438 C 210.992188 173.136719 211.039062 173.121094 211.089844 173.109375 C 211.261719 173.0625 211.433594 173.011719 211.601562 172.957031 C 214.898438 171.882812 217.410156 170.375 219.199219 168.59375 C 220.273438 167.527344 221.085938 166.359375 221.648438 165.128906 C 221.917969 164.542969 222.050781 163.933594 222.0625 163.335938 C 222.0625 163.164062 222.058594 162.996094 222.039062 162.828125 C 222.015625 162.574219 221.96875 162.328125 221.902344 162.085938 " fill-opacity="1" fill-rule="nonzero"/></g><g fill="#fb7ea2" fill-opacity="1"><g transform="translate(42.66307, 246.370354)"><g><path d="M 8.367188 0.269531 C 12.765625 0.269531 15.5625 -1.292969 15.5625 -3.875 C 15.5625 -9.390625 4.085938 -6.824219 4.085938 -9.757812 C 4.085938 -10.914062 6.015625 -11.222656 8.195312 -11.222656 C 10.46875 -11.222656 12.785156 -10.664062 14.210938 -9.835938 L 14.210938 -12.6875 C 12.6875 -13.324219 10.277344 -13.769531 8.078125 -13.769531 C 4.164062 -13.769531 0.984375 -12.398438 0.984375 -9.796875 C 0.984375 -4.222656 12.4375 -6.671875 12.4375 -3.855469 C 12.4375 -2.660156 10.757812 -2.257812 8.3125 -2.257812 C 5.535156 -2.257812 2.875 -2.875 0.847656 -4.164062 L 0.714844 -1.097656 C 2.816406 -0.269531 6.035156 0.269531 8.367188 0.269531 Z M 8.367188 0.269531 "/></g></g></g><g fill="#fb7ea2" fill-opacity="1"><g transform="translate(69.040068, 246.370354)"><g><path d="M -0.230469 0 L 3.546875 0 C 3.625 -0.5 3.953125 -1.136719 4.414062 -2.121094 L 4.976562 -3.164062 L 12.628906 -3.164062 L 13.1875 -2.140625 C 13.75 -1.136719 13.980469 -0.519531 14.058594 0 L 17.835938 0 C 17.316406 -0.753906 16.5625 -1.984375 15.925781 -3.238281 L 12.226562 -10.277344 C 11.703125 -11.339844 11.355469 -12.628906 11.183594 -13.496094 L 6.460938 -13.496094 C 6.324219 -12.746094 5.996094 -11.53125 5.359375 -10.257812 L 1.695312 -3.238281 C 1.042969 -2.003906 0.289062 -0.753906 -0.230469 0 Z M 6.09375 -5.457031 L 7.867188 -8.890625 C 8.214844 -9.640625 8.445312 -10.257812 8.714844 -11.03125 L 8.890625 -11.03125 C 9.140625 -10.277344 9.390625 -9.621094 9.71875 -8.910156 L 11.511719 -5.457031 Z M 6.09375 -5.457031 "/></g></g></g><g fill="#fb7ea2" fill-opacity="1"><g transform="translate(96.708647, 246.370354)"><g><path d="M 14.90625 0.269531 C 15.925781 0.269531 16.777344 -0.210938 17.199219 -0.828125 L 17.085938 -4.320312 C 16.679688 -3.507812 16.3125 -3.066406 15.175781 -3.066406 C 12.84375 -3.066406 13.671875 -7.117188 8.945312 -7.117188 L 8.65625 -7.117188 L 8.65625 -7.308594 L 9.429688 -7.308594 C 13.304688 -7.308594 15.292969 -8.503906 15.292969 -11.355469 C 15.292969 -12.339844 15.117188 -12.863281 14.75 -13.496094 L 11.394531 -13.496094 C 11.839844 -12.878906 12.050781 -12.148438 12.050781 -11.375 C 12.050781 -9.371094 10.488281 -8.3125 7.789062 -8.3125 L 4.9375 -8.3125 L 4.9375 -10.449219 C 4.9375 -11.742188 5.070312 -12.765625 5.265625 -13.496094 L 1.5625 -13.496094 C 1.792969 -12.746094 1.929688 -11.570312 1.929688 -10.257812 L 1.929688 -3.238281 C 1.929688 -1.929688 1.792969 -0.753906 1.5625 0 L 5.265625 0 C 5.050781 -0.753906 4.9375 -2.003906 4.9375 -3.316406 L 4.9375 -5.824219 C 5.378906 -5.976562 6.613281 -6.113281 7.328125 -6.113281 C 12.898438 -6.113281 9.835938 0.269531 14.90625 0.269531 Z M 14.90625 0.269531 "/></g></g></g><g fill="#fb7ea2" fill-opacity="1"><g transform="translate(124.3194, 246.370354)"><g><path d="M 9.042969 0.269531 C 13.691406 0.269531 16.3125 -2.0625 16.3125 -5.902344 L 16.3125 -10.257812 C 16.3125 -11.570312 16.449219 -12.746094 16.660156 -13.496094 L 12.957031 -13.496094 C 13.171875 -12.746094 13.304688 -11.511719 13.304688 -10.21875 L 13.304688 -6.34375 C 13.304688 -3.894531 11.570312 -2.351562 9.042969 -2.351562 C 6.515625 -2.351562 4.800781 -3.894531 4.800781 -6.34375 L 4.800781 -10.21875 C 4.800781 -11.511719 4.9375 -12.746094 5.128906 -13.496094 L 1.445312 -13.496094 C 1.660156 -12.746094 1.792969 -11.570312 1.792969 -10.257812 L 1.792969 -5.902344 C 1.792969 -1.96875 4.53125 0.269531 9.042969 0.269531 Z M 9.042969 0.269531 "/></g></g></g><g fill="#fb7ea2" fill-opacity="1"><g transform="translate(152.489196, 246.370354)"><g><path d="M 15.503906 0.289062 C 16.488281 0.289062 17.410156 -0.117188 17.855469 -0.714844 L 17.71875 -4.050781 C 17.375 -3.21875 16.910156 -2.699219 15.871094 -2.699219 C 13.75 -2.699219 14.210938 -6.113281 10.160156 -6.113281 L 10.007812 -6.113281 L 10.007812 -6.265625 L 11.183594 -6.265625 C 14.289062 -6.265625 16.390625 -7.789062 16.390625 -9.96875 C 16.390625 -12.246094 14.152344 -13.496094 10.914062 -13.496094 L 1.582031 -13.496094 C 1.792969 -12.746094 1.929688 -11.570312 1.929688 -10.257812 L 1.929688 -3.238281 C 1.929688 -1.929688 1.792969 -0.769531 1.582031 0 L 5.285156 0 C 5.050781 -0.769531 4.9375 -1.8125 4.9375 -3.105469 L 4.9375 -5.109375 C 5.378906 -5.246094 6.902344 -5.285156 7.460938 -5.285156 C 12.996094 -5.285156 10.46875 0.289062 15.503906 0.289062 Z M 4.9375 -7.421875 L 4.9375 -10.894531 L 10.605469 -10.894531 C 12.261719 -10.894531 13.382812 -10.238281 13.382812 -9.160156 C 13.382812 -8.039062 12.246094 -7.421875 10.46875 -7.421875 Z M 4.9375 -7.421875 "/></g></g></g><g fill="#fb7ea2" fill-opacity="1"><g transform="translate(180.620443, 246.370354)"><g><path d="M -0.230469 0 L 3.546875 0 C 3.625 -0.5 3.953125 -1.136719 4.414062 -2.121094 L 4.976562 -3.164062 L 12.628906 -3.164062 L 13.1875 -2.140625 C 13.75 -1.136719 13.980469 -0.519531 14.058594 0 L 17.835938 0 C 17.316406 -0.753906 16.5625 -1.984375 15.925781 -3.238281 L 12.226562 -10.277344 C 11.703125 -11.339844 11.355469 -12.628906 11.183594 -13.496094 L 6.460938 -13.496094 C 6.324219 -12.746094 5.996094 -11.53125 5.359375 -10.257812 L 1.695312 -3.238281 C 1.042969 -2.003906 0.289062 -0.753906 -0.230469 0 Z M 6.09375 -5.457031 L 7.867188 -8.890625 C 8.214844 -9.640625 8.445312 -10.257812 8.714844 -11.03125 L 8.890625 -11.03125 C 9.140625 -10.277344 9.390625 -9.621094 9.71875 -8.910156 L 11.511719 -5.457031 Z M 6.09375 -5.457031 "/></g></g></g><g fill="#fb7ea2" fill-opacity="1"><g transform="translate(208.289028, 246.370354)"><g/></g></g><g fill="#fb7ea2" fill-opacity="1"><g transform="translate(223.774302, 246.370354)"><g><path d="M 1.5625 0 L 9.351562 0 C 14.09375 0 17.199219 -2.546875 17.199219 -6.75 C 17.199219 -10.953125 14.09375 -13.496094 9.351562 -13.496094 L 1.5625 -13.496094 C 1.773438 -12.746094 1.929688 -11.570312 1.929688 -10.257812 L 1.929688 -3.238281 C 1.929688 -1.929688 1.792969 -0.753906 1.5625 0 Z M 4.917969 -2.640625 L 4.917969 -10.875 L 9.140625 -10.875 C 12.050781 -10.875 14.113281 -9.332031 14.113281 -6.75 C 14.113281 -4.164062 12.050781 -2.640625 9.140625 -2.640625 Z M 4.917969 -2.640625 "/></g></g></g><g fill="#fb7ea2" fill-opacity="1"><g transform="translate(251.905548, 246.370354)"><g><path d="M -0.230469 0 L 3.546875 0 C 3.625 -0.5 3.953125 -1.136719 4.414062 -2.121094 L 4.976562 -3.164062 L 12.628906 -3.164062 L 13.1875 -2.140625 C 13.75 -1.136719 13.980469 -0.519531 14.058594 0 L 17.835938 0 C 17.316406 -0.753906 16.5625 -1.984375 15.925781 -3.238281 L 12.226562 -10.277344 C 11.703125 -11.339844 11.355469 -12.628906 11.183594 -13.496094 L 6.460938 -13.496094 C 6.324219 -12.746094 5.996094 -11.53125 5.359375 -10.257812 L 1.695312 -3.238281 C 1.042969 -2.003906 0.289062 -0.753906 -0.230469 0 Z M 6.09375 -5.457031 L 7.867188 -8.890625 C 8.214844 -9.640625 8.445312 -10.257812 8.714844 -11.03125 L 8.890625 -11.03125 C 9.140625 -10.277344 9.390625 -9.621094 9.71875 -8.910156 L 11.511719 -5.457031 Z M 6.09375 -5.457031 "/></g></g></g><g fill="#fb7ea2" fill-opacity="1"><g transform="translate(279.574133, 246.370354)"><g><path d="M 6.035156 0 L 9.738281 0 C 9.507812 -0.769531 9.390625 -1.929688 9.390625 -3.238281 L 9.390625 -10.875 L 12.726562 -10.875 C 13.980469 -10.875 14.710938 -10.757812 15.347656 -10.546875 L 14.75 -13.496094 L 1.003906 -13.496094 L 0.40625 -10.546875 C 1.058594 -10.777344 1.773438 -10.875 3.027344 -10.875 L 6.382812 -10.875 L 6.382812 -3.238281 C 6.382812 -1.929688 6.246094 -0.769531 6.035156 0 Z M 6.035156 0 "/></g></g></g><g fill="#fb7ea2" fill-opacity="1"><g transform="translate(305.3728, 246.370354)"><g><path d="M 1.5625 0 L 15.15625 0 L 15.714844 -3.066406 C 15.15625 -2.757812 14.289062 -2.566406 12.765625 -2.566406 L 4.917969 -2.566406 L 4.917969 -5.515625 L 11.125 -5.515625 C 12.050781 -5.515625 12.6875 -5.476562 13.152344 -5.398438 L 13.152344 -8.136719 C 12.6875 -8.058594 12.050781 -8.023438 11.125 -8.023438 L 4.917969 -8.023438 L 4.917969 -10.933594 L 12.628906 -10.933594 C 13.960938 -10.933594 14.808594 -10.796875 15.253906 -10.585938 L 14.769531 -13.496094 L 1.5625 -13.496094 C 1.773438 -12.746094 1.929688 -11.570312 1.929688 -10.257812 L 1.929688 -3.238281 C 1.929688 -1.929688 1.792969 -0.753906 1.5625 0 Z M 1.5625 0 "/></g></g></g><g fill="#fb7ea2" fill-opacity="1"><g transform="translate(187.319314, 276.370352)"><g/></g></g></svg>